ISO-10303-21;
HEADER;
/* Generated by software containing ST-Developer
 * from STEP Tools, Inc. (www.steptools.com) 
 */
/* OPTION: using custom renumber hook */

FILE_DESCRIPTION(
/* description */ ('STEP AP242 Edition 2',
'CAx-IF Rec.Pracs.---Representation and Presentation of Product Manufa
cturing Information (PMI)---4.0---2014-10-13',
'CAx-IF Rec.Pracs.---3D Tessellated Geometry---0.4---2014-09-14','2;1',
'CAx-IF Rec.Pracs.---User Defined Attributes---1.5---2016-08-15'),
/* implementation_level */ '2;1');

FILE_NAME(
/* name */ 'Insole V2 - Part 5',
/* time_stamp */ '2026-08-30T13:08:55Z',
/* author */ (''),
/* organization */ (''),
/* preprocessor_version */ 'ST-DEVELOPER v20',
/* originating_system */ 'ONSHAPE BY PTC INC, 1.220',
/* authorisation */ '  ');

FILE_SCHEMA (('AP242_MANAGED_MODEL_BASED_3D_ENGINEERING_MIM_LF { 1 0 10303 442 3 1 4 }'));
ENDSEC;

DATA;
#10=SHAPE_REPRESENTATION_RELATIONSHIP('','',#151,#11);
#11=ADVANCED_BREP_SHAPE_REPRESENTATION('',(#149),#249);
#12=CIRCLE('',#155,0.0049000000000002);
#13=CIRCLE('',#156,0.0049000000000002);
#14=CIRCLE('',#158,0.0051);
#15=CIRCLE('',#159,0.0051);
#16=CIRCLE('',#161,0.0049);
#17=CIRCLE('',#163,0.0049);
#18=CYLINDRICAL_SURFACE('',#154,0.0049000000000002);
#19=CYLINDRICAL_SURFACE('',#157,0.0051);
#20=CYLINDRICAL_SURFACE('',#162,0.0049);
#21=ORIENTED_EDGE('',*,*,#57,.F.);
#22=ORIENTED_EDGE('',*,*,#58,.T.);
#23=ORIENTED_EDGE('',*,*,#59,.T.);
#24=ORIENTED_EDGE('',*,*,#60,.F.);
#25=ORIENTED_EDGE('',*,*,#61,.F.);
#26=ORIENTED_EDGE('',*,*,#62,.T.);
#27=ORIENTED_EDGE('',*,*,#60,.T.);
#28=ORIENTED_EDGE('',*,*,#63,.F.);
#29=ORIENTED_EDGE('',*,*,#64,.F.);
#30=ORIENTED_EDGE('',*,*,#61,.T.);
#31=ORIENTED_EDGE('',*,*,#65,.T.);
#32=ORIENTED_EDGE('',*,*,#66,.F.);
#33=ORIENTED_EDGE('',*,*,#67,.T.);
#34=ORIENTED_EDGE('',*,*,#68,.T.);
#35=ORIENTED_EDGE('',*,*,#69,.T.);
#36=ORIENTED_EDGE('',*,*,#65,.F.);
#37=ORIENTED_EDGE('',*,*,#63,.T.);
#38=ORIENTED_EDGE('',*,*,#59,.F.);
#39=ORIENTED_EDGE('',*,*,#70,.F.);
#40=ORIENTED_EDGE('',*,*,#71,.T.);
#41=ORIENTED_EDGE('',*,*,#66,.T.);
#42=ORIENTED_EDGE('',*,*,#69,.F.);
#43=ORIENTED_EDGE('',*,*,#58,.F.);
#44=ORIENTED_EDGE('',*,*,#72,.T.);
#45=ORIENTED_EDGE('',*,*,#73,.T.);
#46=ORIENTED_EDGE('',*,*,#67,.F.);
#47=ORIENTED_EDGE('',*,*,#73,.F.);
#48=ORIENTED_EDGE('',*,*,#74,.T.);
#49=ORIENTED_EDGE('',*,*,#70,.T.);
#50=ORIENTED_EDGE('',*,*,#68,.F.);
#51=ORIENTED_EDGE('',*,*,#72,.F.);
#52=ORIENTED_EDGE('',*,*,#57,.T.);
#53=ORIENTED_EDGE('',*,*,#62,.F.);
#54=ORIENTED_EDGE('',*,*,#64,.T.);
#55=ORIENTED_EDGE('',*,*,#71,.F.);
#56=ORIENTED_EDGE('',*,*,#74,.F.);
#57=EDGE_CURVE('',#75,#76,#87,.T.);
#58=EDGE_CURVE('',#75,#77,#88,.T.);
#59=EDGE_CURVE('',#77,#78,#89,.T.);
#60=EDGE_CURVE('',#76,#78,#90,.T.);
#61=EDGE_CURVE('',#79,#80,#91,.T.);
#62=EDGE_CURVE('',#79,#76,#12,.T.);
#63=EDGE_CURVE('',#80,#78,#13,.T.);
#64=EDGE_CURVE('',#79,#81,#14,.T.);
#65=EDGE_CURVE('',#80,#82,#15,.T.);
#66=EDGE_CURVE('',#81,#82,#92,.T.);
#67=EDGE_CURVE('',#77,#83,#93,.T.);
#68=EDGE_CURVE('',#83,#84,#94,.T.);
#69=EDGE_CURVE('',#84,#82,#16,.T.);
#70=EDGE_CURVE('',#85,#84,#95,.T.);
#71=EDGE_CURVE('',#85,#81,#17,.T.);
#72=EDGE_CURVE('',#75,#86,#96,.T.);
#73=EDGE_CURVE('',#86,#83,#97,.T.);
#74=EDGE_CURVE('',#86,#85,#98,.T.);
#75=VERTEX_POINT('',#212);
#76=VERTEX_POINT('',#213);
#77=VERTEX_POINT('',#215);
#78=VERTEX_POINT('',#217);
#79=VERTEX_POINT('',#221);
#80=VERTEX_POINT('',#222);
#81=VERTEX_POINT('',#227);
#82=VERTEX_POINT('',#229);
#83=VERTEX_POINT('',#233);
#84=VERTEX_POINT('',#235);
#85=VERTEX_POINT('',#239);
#86=VERTEX_POINT('',#243);
#87=LINE('',#211,#99);
#88=LINE('',#214,#100);
#89=LINE('',#216,#101);
#90=LINE('',#218,#102);
#91=LINE('',#220,#103);
#92=LINE('',#230,#104);
#93=LINE('',#232,#105);
#94=LINE('',#234,#106);
#95=LINE('',#238,#107);
#96=LINE('',#242,#108);
#97=LINE('',#244,#109);
#98=LINE('',#246,#110);
#99=VECTOR('',#171,1.);
#100=VECTOR('',#172,1.);
#101=VECTOR('',#173,1.);
#102=VECTOR('',#174,1.);
#103=VECTOR('',#177,1.);
#104=VECTOR('',#188,1.);
#105=VECTOR('',#191,1.);
#106=VECTOR('',#192,1.);
#107=VECTOR('',#197,1.);
#108=VECTOR('',#202,1.);
#109=VECTOR('',#203,1.);
#110=VECTOR('',#206,1.);
#111=EDGE_LOOP('',(#21,#22,#23,#24));
#112=EDGE_LOOP('',(#25,#26,#27,#28));
#113=EDGE_LOOP('',(#29,#30,#31,#32));
#114=EDGE_LOOP('',(#33,#34,#35,#36,#37,#38));
#115=EDGE_LOOP('',(#39,#40,#41,#42));
#116=EDGE_LOOP('',(#43,#44,#45,#46));
#117=EDGE_LOOP('',(#47,#48,#49,#50));
#118=EDGE_LOOP('',(#51,#52,#53,#54,#55,#56));
#119=FACE_BOUND('',#111,.T.);
#120=FACE_BOUND('',#112,.T.);
#121=FACE_BOUND('',#113,.T.);
#122=FACE_BOUND('',#114,.T.);
#123=FACE_BOUND('',#115,.T.);
#124=FACE_BOUND('',#116,.T.);
#125=FACE_BOUND('',#117,.T.);
#126=FACE_BOUND('',#118,.T.);
#127=PLANE('',#153);
#128=PLANE('',#160);
#129=PLANE('',#164);
#130=PLANE('',#165);
#131=PLANE('',#166);
#132=ADVANCED_FACE('',(#119),#127,.F.);
#133=ADVANCED_FACE('',(#120),#18,.F.);
#134=ADVANCED_FACE('',(#121),#19,.T.);
#135=ADVANCED_FACE('',(#122),#128,.F.);
#136=ADVANCED_FACE('',(#123),#20,.F.);
#137=ADVANCED_FACE('',(#124),#129,.T.);
#138=ADVANCED_FACE('',(#125),#130,.T.);
#139=ADVANCED_FACE('',(#126),#131,.T.);
#140=CLOSED_SHELL('',(#132,#133,#134,#135,#136,#137,#138,#139));
#141=STYLED_ITEM('',(#142),#149);
#142=PRESENTATION_STYLE_ASSIGNMENT((#143));
#143=SURFACE_STYLE_USAGE(.BOTH.,#144);
#144=SURFACE_SIDE_STYLE('',(#145));
#145=SURFACE_STYLE_FILL_AREA(#146);
#146=FILL_AREA_STYLE('',(#147));
#147=FILL_AREA_STYLE_COLOUR('',#148);
#148=COLOUR_RGB('',1.,0.756862745098039,0.0549019607843137);
#149=MANIFOLD_SOLID_BREP('Part 5',#140);
#150=SHAPE_DEFINITION_REPRESENTATION(#254,#151);
#151=SHAPE_REPRESENTATION('Part 5',(#152),#249);
#152=AXIS2_PLACEMENT_3D('',#209,#167,#168);
#153=AXIS2_PLACEMENT_3D('',#210,#169,#170);
#154=AXIS2_PLACEMENT_3D('',#219,#175,#176);
#155=AXIS2_PLACEMENT_3D('',#223,#178,#179);
#156=AXIS2_PLACEMENT_3D('',#224,#180,#181);
#157=AXIS2_PLACEMENT_3D('',#225,#182,#183);
#158=AXIS2_PLACEMENT_3D('',#226,#184,#185);
#159=AXIS2_PLACEMENT_3D('',#228,#186,#187);
#160=AXIS2_PLACEMENT_3D('',#231,#189,#190);
#161=AXIS2_PLACEMENT_3D('',#236,#193,#194);
#162=AXIS2_PLACEMENT_3D('',#237,#195,#196);
#163=AXIS2_PLACEMENT_3D('',#240,#198,#199);
#164=AXIS2_PLACEMENT_3D('',#241,#200,#201);
#165=AXIS2_PLACEMENT_3D('',#245,#204,#205);
#166=AXIS2_PLACEMENT_3D('',#247,#207,#208);
#167=DIRECTION('',(0.,0.,1.));
#168=DIRECTION('',(1.,0.,0.));
#169=DIRECTION('',(-1.,-1.09479408670523E-14,0.));
#170=DIRECTION('',(1.09479408670523E-14,-1.,0.));
#171=DIRECTION('',(-1.09479408670523E-14,1.,0.));
#172=DIRECTION('',(0.,0.,-1.));
#173=DIRECTION('',(-1.09479408670523E-14,1.,0.));
#174=DIRECTION('',(0.,0.,-1.));
#175=DIRECTION('',(0.,0.,-1.));
#176=DIRECTION('',(-1.,0.,0.));
#177=DIRECTION('',(0.,0.,-1.));
#178=DIRECTION('',(0.,0.,1.));
#179=DIRECTION('',(1.,0.,0.));
#180=DIRECTION('',(0.,0.,1.));
#181=DIRECTION('',(1.,0.,0.));
#182=DIRECTION('',(0.,0.,-1.));
#183=DIRECTION('',(-1.,0.,0.));
#184=DIRECTION('',(0.,0.,1.));
#185=DIRECTION('',(1.,0.,0.));
#186=DIRECTION('',(0.,0.,1.));
#187=DIRECTION('',(1.,0.,0.));
#188=DIRECTION('',(0.,0.,-1.));
#189=DIRECTION('',(0.,0.,1.));
#190=DIRECTION('',(1.,0.,0.));
#191=DIRECTION('',(-1.,-2.31296463463578E-14,0.));
#192=DIRECTION('',(-1.09479408670523E-14,1.,0.));
#193=DIRECTION('',(0.,0.,1.));
#194=DIRECTION('',(1.,0.,0.));
#195=DIRECTION('',(0.,0.,-1.));
#196=DIRECTION('',(-1.,0.,0.));
#197=DIRECTION('',(0.,0.,-1.));
#198=DIRECTION('',(0.,0.,1.));
#199=DIRECTION('',(1.,0.,0.));
#200=DIRECTION('',(2.31296463463578E-14,-1.,0.));
#201=DIRECTION('',(1.,2.31296463463578E-14,0.));
#202=DIRECTION('',(-1.,-2.31296463463578E-14,0.));
#203=DIRECTION('',(0.,0.,-1.));
#204=DIRECTION('',(-1.,-1.09479408670523E-14,0.));
#205=DIRECTION('',(1.09479408670523E-14,-1.,0.));
#206=DIRECTION('',(-1.09479408670523E-14,1.,0.));
#207=DIRECTION('',(0.,0.,1.));
#208=DIRECTION('',(1.,0.,0.));
#209=CARTESIAN_POINT('',(0.,0.,0.));
#210=CARTESIAN_POINT('',(0.0409446062505246,0.0207604284895665,0.005752));
#211=CARTESIAN_POINT('',(0.0409446062505246,0.0207604284895665,0.00575));
#212=CARTESIAN_POINT('',(0.0409446062505246,0.0175913878507055,0.00575));
#213=CARTESIAN_POINT('',(0.0409446062505245,0.0242217778507056,0.00575));
#214=CARTESIAN_POINT('',(0.0409446062505246,0.0175913878507055,0.005752));
#215=CARTESIAN_POINT('',(0.0409446062505246,0.0175913878507055,0.0056));
#216=CARTESIAN_POINT('',(0.0409446062505246,0.0207604284895665,0.0056));
#217=CARTESIAN_POINT('',(0.0409446062505245,0.0242217778507056,0.0056));
#218=CARTESIAN_POINT('',(0.0409446062505245,0.0242217778507056,0.005752));
#219=CARTESIAN_POINT('',(0.0458446062505248,0.0242217778507055,0.005752));
#220=CARTESIAN_POINT('',(0.0420471062505246,0.0273183878923479,0.005752));
#221=CARTESIAN_POINT('',(0.0420471062505246,0.0273183878923479,0.00575));
#222=CARTESIAN_POINT('',(0.0420471062505246,0.0273183878923479,0.0056));
#223=CARTESIAN_POINT('',(0.0458446062505248,0.0242217778507055,0.00575));
#224=CARTESIAN_POINT('',(0.0458446062505248,0.0242217778507055,0.0056));
#225=CARTESIAN_POINT('',(0.0380946062505245,0.0305413901805877,0.005752));
#226=CARTESIAN_POINT('',(0.0380946062505245,0.0305413901805877,0.00575));
#227=CARTESIAN_POINT('',(0.0341421062505245,0.0273183878923479,0.00575));
#228=CARTESIAN_POINT('',(0.0380946062505245,0.0305413901805877,0.0056));
#229=CARTESIAN_POINT('',(0.0341421062505245,0.0273183878923479,0.0056));
#230=CARTESIAN_POINT('',(0.0341421062505245,0.0273183878923479,0.005752));
#231=CARTESIAN_POINT('',(0.00344218414064486,-0.00176572507614403,0.0056));
#232=CARTESIAN_POINT('',(0.0353196062505246,0.0175913878507055,0.0056));
#233=CARTESIAN_POINT('',(0.0352446062505246,0.0175913878507055,0.0056));
#234=CARTESIAN_POINT('',(0.0352446062505246,0.0207604284895665,0.0056));
#235=CARTESIAN_POINT('',(0.0352446062505246,0.0242217778507055,0.0056));
#236=CARTESIAN_POINT('',(0.0303446062505245,0.0242217778507055,0.0056));
#237=CARTESIAN_POINT('',(0.0303446062505245,0.0242217778507055,0.005752));
#238=CARTESIAN_POINT('',(0.0352446062505246,0.0242217778507055,0.005752));
#239=CARTESIAN_POINT('',(0.0352446062505246,0.0242217778507055,0.00575));
#240=CARTESIAN_POINT('',(0.0303446062505245,0.0242217778507055,0.00575));
#241=CARTESIAN_POINT('',(0.0353196062505246,0.0175913878507055,0.005752));
#242=CARTESIAN_POINT('',(0.0353196062505246,0.0175913878507055,0.00575));
#243=CARTESIAN_POINT('',(0.0352446062505246,0.0175913878507055,0.00575));
#244=CARTESIAN_POINT('',(0.0352446062505246,0.0175913878507055,0.005752));
#245=CARTESIAN_POINT('',(0.0352446062505246,0.0207604284895665,0.005752));
#246=CARTESIAN_POINT('',(0.0352446062505246,0.0207604284895665,0.00575));
#247=CARTESIAN_POINT('',(0.00344218414064486,-0.00176572507614403,0.00575));
#248=MECHANICAL_DESIGN_GEOMETRIC_PRESENTATION_REPRESENTATION('',(#141),
#249);
#249=(
GEOMETRIC_REPRESENTATION_CONTEXT(3)
GLOBAL_UNCERTAINTY_ASSIGNED_CONTEXT((#250))
GLOBAL_UNIT_ASSIGNED_CONTEXT((#253,#252,#251))
REPRESENTATION_CONTEXT('Part 5','TOP_LEVEL_ASSEMBLY_PART')
);
#250=UNCERTAINTY_MEASURE_WITH_UNIT(LENGTH_MEASURE(1.E-8),#253,
'DISTANCE_ACCURACY_VALUE','Maximum Tolerance applied to model');
#251=(
NAMED_UNIT(*)
SI_UNIT($,.STERADIAN.)
SOLID_ANGLE_UNIT()
);
#252=(
NAMED_UNIT(*)
PLANE_ANGLE_UNIT()
SI_UNIT($,.RADIAN.)
);
#253=(
LENGTH_UNIT()
NAMED_UNIT(*)
SI_UNIT($,.METRE.)
);
#254=PRODUCT_DEFINITION_SHAPE('','',#255);
#255=PRODUCT_DEFINITION('','',#257,#256);
#256=PRODUCT_DEFINITION_CONTEXT('',#263,'design');
#257=PRODUCT_DEFINITION_FORMATION_WITH_SPECIFIED_SOURCE('','',#259,
 .NOT_KNOWN.);
#258=PRODUCT_RELATED_PRODUCT_CATEGORY('','',(#259));
#259=PRODUCT('Part 5','Part 5','Part 5',(#261));
#260=PRODUCT_CATEGORY('','');
#261=PRODUCT_CONTEXT('',#263,'mechanical');
#262=APPLICATION_PROTOCOL_DEFINITION('international standard',
'ap242_managed_model_based_3d_engineering',2020,#263);
#263=APPLICATION_CONTEXT('managed model based 3d engineering');
ENDSEC;
END-ISO-10303-21;
